<svg width="393" height="374" viewBox="0 0 393 374" fill="none" xmlns="http://www.w3.org/2000/svg">
<path d="M178.551 25.6423C181.211 17.4526 192.789 17.4526 195.449 25.6423L231.789 137.543C233.648 143.266 238.978 147.141 244.994 147.141H362.594C371.198 147.141 374.781 158.16 367.816 163.223L272.675 232.382C267.809 235.919 265.773 242.188 267.632 247.91L303.972 359.811C306.633 368.006 297.261 374.809 290.302 369.751L195.161 300.592C190.295 297.055 183.705 297.055 178.839 300.592L83.6982 369.751C76.7392 374.809 67.3666 368.006 70.0278 359.811L106.368 247.91C108.227 242.188 106.191 235.919 101.325 232.382L6.18442 163.223C-0.781016 158.16 2.80227 147.141 11.4058 147.141H129.006C135.022 147.141 140.352 143.266 142.21 137.543L178.551 25.6423Z" stroke="#2335AD" stroke-width="5"/>
<path d="M195.173 7.84808C198.581 -2.61601 213.419 -2.61603 216.827 7.84805L253.167 119.436C254.691 124.115 259.062 127.284 263.994 127.284H381.594C392.622 127.284 397.207 141.363 388.286 147.83L293.145 216.795C289.155 219.687 287.486 224.814 289.01 229.493L325.35 341.081C328.758 351.545 316.754 360.247 307.832 353.779L212.691 284.815C208.701 281.922 203.299 281.922 199.309 284.815L104.168 353.779C95.2464 360.247 83.2422 351.545 86.65 341.081L122.99 229.493C124.514 224.814 122.845 219.687 118.855 216.795L23.7145 147.83C14.7927 141.363 19.3779 127.284 30.4058 127.284H148.006C152.938 127.284 157.309 124.115 158.833 119.436L195.173 7.84808Z" fill="#2542FA"/>
</svg>
